<mxfile host="app.diagrams.net" modified="2024-03-29T23:16:26.623Z" agent="Mozilla/5.0 (Macintosh; Intel Mac OS X 10_15_7) AppleWebKit/537.36 (KHTML, like Gecko) Chrome/123.0.0.0 Safari/537.36" etag="etTLBVT8FLBigZXbosu2" version="22.1.18" type="github">
  <diagram name="第 1 页" id="e_4n1hrw7utGGmtKZ_Jv">
    <mxGraphModel dx="935" dy="582" grid="0" gridSize="10" guides="1" tooltips="1" connect="1" arrows="1" fold="1" page="1" pageScale="1" pageWidth="827" pageHeight="1169" math="0" shadow="0">
      <root>
        <mxCell id="0" />
        <mxCell id="1" parent="0" />
        <mxCell id="paGiszW4Czn-gF01w1Bo-1" value="AWS Cloud" style="points=[[0,0],[0.25,0],[0.5,0],[0.75,0],[1,0],[1,0.25],[1,0.5],[1,0.75],[1,1],[0.75,1],[0.5,1],[0.25,1],[0,1],[0,0.75],[0,0.5],[0,0.25]];outlineConnect=0;gradientColor=none;html=1;whiteSpace=wrap;fontSize=11;fontStyle=0;container=1;pointerEvents=0;collapsible=0;recursiveResize=0;shape=mxgraph.aws4.group;grIcon=mxgraph.aws4.group_aws_cloud_alt;strokeColor=#232F3E;fillColor=none;verticalAlign=top;align=left;spacingLeft=30;fontColor=#232F3E;dashed=0;" parent="1" vertex="1">
          <mxGeometry x="10" y="195" width="557" height="585" as="geometry" />
        </mxCell>
        <mxCell id="paGiszW4Czn-gF01w1Bo-2" value="Region" style="points=[[0,0],[0.25,0],[0.5,0],[0.75,0],[1,0],[1,0.25],[1,0.5],[1,0.75],[1,1],[0.75,1],[0.5,1],[0.25,1],[0,1],[0,0.75],[0,0.5],[0,0.25]];outlineConnect=0;gradientColor=none;html=1;whiteSpace=wrap;fontSize=12;fontStyle=0;container=1;pointerEvents=0;collapsible=0;recursiveResize=0;shape=mxgraph.aws4.group;grIcon=mxgraph.aws4.group_region;strokeColor=#00A4A6;fillColor=none;verticalAlign=top;align=left;spacingLeft=30;fontColor=#147EBA;dashed=1;" parent="paGiszW4Czn-gF01w1Bo-1" vertex="1">
          <mxGeometry x="60" y="25" width="477" height="545" as="geometry" />
        </mxCell>
        <mxCell id="paGiszW4Czn-gF01w1Bo-3" value="VPC" style="points=[[0,0],[0.25,0],[0.5,0],[0.75,0],[1,0],[1,0.25],[1,0.5],[1,0.75],[1,1],[0.75,1],[0.5,1],[0.25,1],[0,1],[0,0.75],[0,0.5],[0,0.25]];outlineConnect=0;gradientColor=none;html=1;whiteSpace=wrap;fontSize=12;fontStyle=0;container=1;pointerEvents=0;collapsible=0;recursiveResize=0;shape=mxgraph.aws4.group;grIcon=mxgraph.aws4.group_vpc2;strokeColor=#8C4FFF;fillColor=none;verticalAlign=top;align=left;spacingLeft=30;fontColor=#AAB7B8;dashed=0;" parent="paGiszW4Czn-gF01w1Bo-2" vertex="1">
          <mxGeometry x="29.5" y="25" width="327" height="335" as="geometry" />
        </mxCell>
        <mxCell id="paGiszW4Czn-gF01w1Bo-4" value="Availability Zone" style="fillColor=none;strokeColor=#147EBA;dashed=1;verticalAlign=top;fontStyle=0;fontColor=#147EBA;whiteSpace=wrap;html=1;" parent="paGiszW4Czn-gF01w1Bo-3" vertex="1">
          <mxGeometry x="34" y="90" width="116" height="97" as="geometry" />
        </mxCell>
        <mxCell id="paGiszW4Czn-gF01w1Bo-15" value="" style="sketch=0;points=[[0,0,0],[0.25,0,0],[0.5,0,0],[0.75,0,0],[1,0,0],[0,1,0],[0.25,1,0],[0.5,1,0],[0.75,1,0],[1,1,0],[0,0.25,0],[0,0.5,0],[0,0.75,0],[1,0.25,0],[1,0.5,0],[1,0.75,0]];outlineConnect=0;fontColor=#232F3E;fillColor=#ED7100;strokeColor=#ffffff;dashed=0;verticalLabelPosition=bottom;verticalAlign=top;align=center;html=1;fontSize=12;fontStyle=0;aspect=fixed;shape=mxgraph.aws4.resourceIcon;resIcon=mxgraph.aws4.ec2;" parent="paGiszW4Czn-gF01w1Bo-3" vertex="1">
          <mxGeometry x="40" y="122" width="45" height="45" as="geometry" />
        </mxCell>
        <mxCell id="6j5I1fuNLuhJQFN6-kwg-8" value="" style="sketch=0;points=[[0,0,0],[0.25,0,0],[0.5,0,0],[0.75,0,0],[1,0,0],[0,1,0],[0.25,1,0],[0.5,1,0],[0.75,1,0],[1,1,0],[0,0.25,0],[0,0.5,0],[0,0.75,0],[1,0.25,0],[1,0.5,0],[1,0.75,0]];outlineConnect=0;fontColor=#232F3E;fillColor=#DD344C;strokeColor=#ffffff;dashed=0;verticalLabelPosition=bottom;verticalAlign=top;align=center;html=1;fontSize=12;fontStyle=0;aspect=fixed;shape=mxgraph.aws4.resourceIcon;resIcon=mxgraph.aws4.identity_and_access_management;" parent="paGiszW4Czn-gF01w1Bo-3" vertex="1">
          <mxGeometry x="90" y="122" width="46" height="46" as="geometry" />
        </mxCell>
        <mxCell id="6j5I1fuNLuhJQFN6-kwg-13" value="Availability Zone" style="fillColor=none;strokeColor=#147EBA;dashed=1;verticalAlign=top;fontStyle=0;fontColor=#147EBA;whiteSpace=wrap;html=1;" parent="paGiszW4Czn-gF01w1Bo-3" vertex="1">
          <mxGeometry x="158" y="90" width="116" height="97" as="geometry" />
        </mxCell>
        <mxCell id="6j5I1fuNLuhJQFN6-kwg-14" value="" style="sketch=0;points=[[0,0,0],[0.25,0,0],[0.5,0,0],[0.75,0,0],[1,0,0],[0,1,0],[0.25,1,0],[0.5,1,0],[0.75,1,0],[1,1,0],[0,0.25,0],[0,0.5,0],[0,0.75,0],[1,0.25,0],[1,0.5,0],[1,0.75,0]];outlineConnect=0;fontColor=#232F3E;fillColor=#ED7100;strokeColor=#ffffff;dashed=0;verticalLabelPosition=bottom;verticalAlign=top;align=center;html=1;fontSize=12;fontStyle=0;aspect=fixed;shape=mxgraph.aws4.resourceIcon;resIcon=mxgraph.aws4.ec2;" parent="paGiszW4Czn-gF01w1Bo-3" vertex="1">
          <mxGeometry x="164" y="122" width="45" height="45" as="geometry" />
        </mxCell>
        <mxCell id="6j5I1fuNLuhJQFN6-kwg-15" value="" style="sketch=0;points=[[0,0,0],[0.25,0,0],[0.5,0,0],[0.75,0,0],[1,0,0],[0,1,0],[0.25,1,0],[0.5,1,0],[0.75,1,0],[1,1,0],[0,0.25,0],[0,0.5,0],[0,0.75,0],[1,0.25,0],[1,0.5,0],[1,0.75,0]];outlineConnect=0;fontColor=#232F3E;fillColor=#DD344C;strokeColor=#ffffff;dashed=0;verticalLabelPosition=bottom;verticalAlign=top;align=center;html=1;fontSize=12;fontStyle=0;aspect=fixed;shape=mxgraph.aws4.resourceIcon;resIcon=mxgraph.aws4.identity_and_access_management;" parent="paGiszW4Czn-gF01w1Bo-3" vertex="1">
          <mxGeometry x="214" y="122" width="46" height="46" as="geometry" />
        </mxCell>
        <mxCell id="6j5I1fuNLuhJQFN6-kwg-16" value="Availability Zone" style="fillColor=none;strokeColor=#147EBA;dashed=1;verticalAlign=top;fontStyle=0;fontColor=#147EBA;whiteSpace=wrap;html=1;" parent="paGiszW4Czn-gF01w1Bo-3" vertex="1">
          <mxGeometry x="34" y="199" width="116" height="97" as="geometry" />
        </mxCell>
        <mxCell id="6j5I1fuNLuhJQFN6-kwg-17" value="" style="sketch=0;points=[[0,0,0],[0.25,0,0],[0.5,0,0],[0.75,0,0],[1,0,0],[0,1,0],[0.25,1,0],[0.5,1,0],[0.75,1,0],[1,1,0],[0,0.25,0],[0,0.5,0],[0,0.75,0],[1,0.25,0],[1,0.5,0],[1,0.75,0]];outlineConnect=0;fontColor=#232F3E;fillColor=#ED7100;strokeColor=#ffffff;dashed=0;verticalLabelPosition=bottom;verticalAlign=top;align=center;html=1;fontSize=12;fontStyle=0;aspect=fixed;shape=mxgraph.aws4.resourceIcon;resIcon=mxgraph.aws4.ec2;" parent="paGiszW4Czn-gF01w1Bo-3" vertex="1">
          <mxGeometry x="40" y="231" width="45" height="45" as="geometry" />
        </mxCell>
        <mxCell id="6j5I1fuNLuhJQFN6-kwg-18" value="" style="sketch=0;points=[[0,0,0],[0.25,0,0],[0.5,0,0],[0.75,0,0],[1,0,0],[0,1,0],[0.25,1,0],[0.5,1,0],[0.75,1,0],[1,1,0],[0,0.25,0],[0,0.5,0],[0,0.75,0],[1,0.25,0],[1,0.5,0],[1,0.75,0]];outlineConnect=0;fontColor=#232F3E;fillColor=#DD344C;strokeColor=#ffffff;dashed=0;verticalLabelPosition=bottom;verticalAlign=top;align=center;html=1;fontSize=12;fontStyle=0;aspect=fixed;shape=mxgraph.aws4.resourceIcon;resIcon=mxgraph.aws4.identity_and_access_management;" parent="paGiszW4Czn-gF01w1Bo-3" vertex="1">
          <mxGeometry x="90" y="231" width="46" height="46" as="geometry" />
        </mxCell>
        <mxCell id="6j5I1fuNLuhJQFN6-kwg-19" value="Availability Zone" style="fillColor=none;strokeColor=#147EBA;dashed=1;verticalAlign=top;fontStyle=0;fontColor=#147EBA;whiteSpace=wrap;html=1;" parent="paGiszW4Czn-gF01w1Bo-3" vertex="1">
          <mxGeometry x="158" y="199" width="116" height="97" as="geometry" />
        </mxCell>
        <mxCell id="6j5I1fuNLuhJQFN6-kwg-21" value="" style="sketch=0;points=[[0,0,0],[0.25,0,0],[0.5,0,0],[0.75,0,0],[1,0,0],[0,1,0],[0.25,1,0],[0.5,1,0],[0.75,1,0],[1,1,0],[0,0.25,0],[0,0.5,0],[0,0.75,0],[1,0.25,0],[1,0.5,0],[1,0.75,0]];outlineConnect=0;fontColor=#232F3E;fillColor=#DD344C;strokeColor=#ffffff;dashed=0;verticalLabelPosition=bottom;verticalAlign=top;align=center;html=1;fontSize=12;fontStyle=0;aspect=fixed;shape=mxgraph.aws4.resourceIcon;resIcon=mxgraph.aws4.identity_and_access_management;" parent="paGiszW4Czn-gF01w1Bo-3" vertex="1">
          <mxGeometry x="214" y="231" width="46" height="46" as="geometry" />
        </mxCell>
        <mxCell id="6j5I1fuNLuhJQFN6-kwg-20" value="" style="sketch=0;points=[[0,0,0],[0.25,0,0],[0.5,0,0],[0.75,0,0],[1,0,0],[0,1,0],[0.25,1,0],[0.5,1,0],[0.75,1,0],[1,1,0],[0,0.25,0],[0,0.5,0],[0,0.75,0],[1,0.25,0],[1,0.5,0],[1,0.75,0]];outlineConnect=0;fontColor=#232F3E;fillColor=#ED7100;strokeColor=#ffffff;dashed=0;verticalLabelPosition=bottom;verticalAlign=top;align=center;html=1;fontSize=12;fontStyle=0;aspect=fixed;shape=mxgraph.aws4.resourceIcon;resIcon=mxgraph.aws4.ec2;" parent="paGiszW4Czn-gF01w1Bo-3" vertex="1">
          <mxGeometry x="164" y="231" width="45" height="45" as="geometry" />
        </mxCell>
        <mxCell id="6j5I1fuNLuhJQFN6-kwg-22" value="Security group" style="fillColor=none;strokeColor=#DD3522;verticalAlign=top;fontStyle=0;fontColor=#DD3522;whiteSpace=wrap;html=1;" parent="paGiszW4Czn-gF01w1Bo-3" vertex="1">
          <mxGeometry x="21" y="70" width="270" height="238" as="geometry" />
        </mxCell>
        <mxCell id="paGiszW4Czn-gF01w1Bo-6" value="Auto Scaling group" style="points=[[0,0],[0.25,0],[0.5,0],[0.75,0],[1,0],[1,0.25],[1,0.5],[1,0.75],[1,1],[0.75,1],[0.5,1],[0.25,1],[0,1],[0,0.75],[0,0.5],[0,0.25]];outlineConnect=0;gradientColor=none;html=1;whiteSpace=wrap;fontSize=12;fontStyle=0;container=1;pointerEvents=0;collapsible=0;recursiveResize=0;shape=mxgraph.aws4.groupCenter;grIcon=mxgraph.aws4.group_auto_scaling_group;grStroke=1;strokeColor=#D86613;fillColor=none;verticalAlign=top;align=center;fontColor=#D86613;dashed=1;spacingTop=25;" parent="paGiszW4Czn-gF01w1Bo-3" vertex="1">
          <mxGeometry x="11.5" y="24" width="289" height="300" as="geometry" />
        </mxCell>
        <mxCell id="6j5I1fuNLuhJQFN6-kwg-53" value="APP(EC2)" style="text;strokeColor=none;align=center;fillColor=none;html=1;verticalAlign=middle;whiteSpace=wrap;rounded=0;fontSize=10;" parent="paGiszW4Czn-gF01w1Bo-6" vertex="1">
          <mxGeometry x="20.5" y="148" width="60" height="10" as="geometry" />
        </mxCell>
        <mxCell id="6j5I1fuNLuhJQFN6-kwg-54" value="APP(EC2)" style="text;strokeColor=none;align=center;fillColor=none;html=1;verticalAlign=middle;whiteSpace=wrap;rounded=0;fontSize=10;" parent="paGiszW4Czn-gF01w1Bo-6" vertex="1">
          <mxGeometry x="20.5" y="257" width="60" height="10" as="geometry" />
        </mxCell>
        <mxCell id="6j5I1fuNLuhJQFN6-kwg-55" value="APP(EC2)" style="text;strokeColor=none;align=center;fillColor=none;html=1;verticalAlign=middle;whiteSpace=wrap;rounded=0;fontSize=10;" parent="paGiszW4Czn-gF01w1Bo-6" vertex="1">
          <mxGeometry x="146" y="148" width="60" height="10" as="geometry" />
        </mxCell>
        <mxCell id="6j5I1fuNLuhJQFN6-kwg-56" value="APP(EC2)" style="text;strokeColor=none;align=center;fillColor=none;html=1;verticalAlign=middle;whiteSpace=wrap;rounded=0;fontSize=10;" parent="paGiszW4Czn-gF01w1Bo-6" vertex="1">
          <mxGeometry x="147" y="257" width="60" height="10" as="geometry" />
        </mxCell>
        <mxCell id="6j5I1fuNLuhJQFN6-kwg-57" value="IAM&lt;br style=&quot;font-size: 10px;&quot;&gt;" style="text;strokeColor=none;align=center;fillColor=none;html=1;verticalAlign=middle;whiteSpace=wrap;rounded=0;fontSize=10;" parent="paGiszW4Czn-gF01w1Bo-6" vertex="1">
          <mxGeometry x="70" y="138" width="60" height="30" as="geometry" />
        </mxCell>
        <mxCell id="6j5I1fuNLuhJQFN6-kwg-60" value="IAM&lt;br style=&quot;font-size: 10px;&quot;&gt;" style="text;strokeColor=none;align=center;fillColor=none;html=1;verticalAlign=middle;whiteSpace=wrap;rounded=0;fontSize=10;" parent="paGiszW4Czn-gF01w1Bo-6" vertex="1">
          <mxGeometry x="72" y="247" width="60" height="30" as="geometry" />
        </mxCell>
        <mxCell id="6j5I1fuNLuhJQFN6-kwg-61" value="IAM&lt;br style=&quot;font-size: 10px;&quot;&gt;" style="text;strokeColor=none;align=center;fillColor=none;html=1;verticalAlign=middle;whiteSpace=wrap;rounded=0;fontSize=10;" parent="paGiszW4Czn-gF01w1Bo-6" vertex="1">
          <mxGeometry x="196" y="247" width="60" height="30" as="geometry" />
        </mxCell>
        <mxCell id="6j5I1fuNLuhJQFN6-kwg-59" value="IAM&lt;br style=&quot;font-size: 10px;&quot;&gt;" style="text;strokeColor=none;align=center;fillColor=none;html=1;verticalAlign=middle;whiteSpace=wrap;rounded=0;fontSize=10;" parent="paGiszW4Czn-gF01w1Bo-3" vertex="1">
          <mxGeometry x="207" y="162" width="60" height="30" as="geometry" />
        </mxCell>
        <mxCell id="6j5I1fuNLuhJQFN6-kwg-69" value="SNS&lt;br style=&quot;font-size: 10px;&quot;&gt;" style="text;strokeColor=none;align=center;fillColor=none;html=1;verticalAlign=middle;whiteSpace=wrap;rounded=0;fontSize=10;" parent="paGiszW4Czn-gF01w1Bo-3" vertex="1">
          <mxGeometry x="267" y="330" width="60" height="30" as="geometry" />
        </mxCell>
        <mxCell id="6j5I1fuNLuhJQFN6-kwg-23" value="" style="sketch=0;outlineConnect=0;fontColor=#232F3E;gradientColor=none;fillColor=#232F3D;strokeColor=none;dashed=0;verticalLabelPosition=bottom;verticalAlign=top;align=center;html=1;fontSize=12;fontStyle=0;aspect=fixed;pointerEvents=1;shape=mxgraph.aws4.alert;" parent="paGiszW4Czn-gF01w1Bo-2" vertex="1">
          <mxGeometry x="368" y="175" width="19.21" height="17" as="geometry" />
        </mxCell>
        <mxCell id="6j5I1fuNLuhJQFN6-kwg-27" style="edgeStyle=orthogonalEdgeStyle;rounded=0;orthogonalLoop=1;jettySize=auto;html=1;entryX=1;entryY=0.5;entryDx=0;entryDy=0;" parent="paGiszW4Czn-gF01w1Bo-2" source="6j5I1fuNLuhJQFN6-kwg-26" target="paGiszW4Czn-gF01w1Bo-6" edge="1">
          <mxGeometry relative="1" as="geometry" />
        </mxCell>
        <mxCell id="6j5I1fuNLuhJQFN6-kwg-26" value="" style="sketch=0;points=[[0,0,0],[0.25,0,0],[0.5,0,0],[0.75,0,0],[1,0,0],[0,1,0],[0.25,1,0],[0.5,1,0],[0.75,1,0],[1,1,0],[0,0.25,0],[0,0.5,0],[0,0.75,0],[1,0.25,0],[1,0.5,0],[1,0.75,0]];points=[[0,0,0],[0.25,0,0],[0.5,0,0],[0.75,0,0],[1,0,0],[0,1,0],[0.25,1,0],[0.5,1,0],[0.75,1,0],[1,1,0],[0,0.25,0],[0,0.5,0],[0,0.75,0],[1,0.25,0],[1,0.5,0],[1,0.75,0]];outlineConnect=0;fontColor=#232F3E;fillColor=#E7157B;strokeColor=#ffffff;dashed=0;verticalLabelPosition=bottom;verticalAlign=top;align=center;html=1;fontSize=12;fontStyle=0;aspect=fixed;shape=mxgraph.aws4.resourceIcon;resIcon=mxgraph.aws4.cloudwatch_2;" parent="paGiszW4Czn-gF01w1Bo-2" vertex="1">
          <mxGeometry x="410" y="175" width="48" height="48" as="geometry" />
        </mxCell>
        <mxCell id="6j5I1fuNLuhJQFN6-kwg-28" value="" style="sketch=0;points=[[0,0,0],[0.25,0,0],[0.5,0,0],[0.75,0,0],[1,0,0],[0,1,0],[0.25,1,0],[0.5,1,0],[0.75,1,0],[1,1,0],[0,0.25,0],[0,0.5,0],[0,0.75,0],[1,0.25,0],[1,0.5,0],[1,0.75,0]];outlineConnect=0;fontColor=#232F3E;fillColor=#7AA116;strokeColor=#ffffff;dashed=0;verticalLabelPosition=bottom;verticalAlign=top;align=center;html=1;fontSize=12;fontStyle=0;aspect=fixed;shape=mxgraph.aws4.resourceIcon;resIcon=mxgraph.aws4.s3;" parent="paGiszW4Czn-gF01w1Bo-2" vertex="1">
          <mxGeometry x="21" y="378" width="50" height="50" as="geometry" />
        </mxCell>
        <mxCell id="6j5I1fuNLuhJQFN6-kwg-30" value="" style="sketch=0;points=[[0,0,0],[0.25,0,0],[0.5,0,0],[0.75,0,0],[1,0,0],[0,1,0],[0.25,1,0],[0.5,1,0],[0.75,1,0],[1,1,0],[0,0.25,0],[0,0.5,0],[0,0.75,0],[1,0.25,0],[1,0.5,0],[1,0.75,0]];outlineConnect=0;fontColor=#232F3E;fillColor=#ED7100;strokeColor=#ffffff;dashed=0;verticalLabelPosition=bottom;verticalAlign=top;align=center;html=1;fontSize=12;fontStyle=0;aspect=fixed;shape=mxgraph.aws4.resourceIcon;resIcon=mxgraph.aws4.lambda;" parent="paGiszW4Czn-gF01w1Bo-2" vertex="1">
          <mxGeometry x="92" y="378" width="50" height="50" as="geometry" />
        </mxCell>
        <mxCell id="6j5I1fuNLuhJQFN6-kwg-32" style="edgeStyle=orthogonalEdgeStyle;rounded=0;orthogonalLoop=1;jettySize=auto;html=1;entryX=0;entryY=0.5;entryDx=0;entryDy=0;entryPerimeter=0;" parent="paGiszW4Czn-gF01w1Bo-2" source="6j5I1fuNLuhJQFN6-kwg-28" target="6j5I1fuNLuhJQFN6-kwg-30" edge="1">
          <mxGeometry relative="1" as="geometry" />
        </mxCell>
        <mxCell id="6j5I1fuNLuhJQFN6-kwg-33" value="" style="sketch=0;points=[[0,0,0],[0.25,0,0],[0.5,0,0],[0.75,0,0],[1,0,0],[0,1,0],[0.25,1,0],[0.5,1,0],[0.75,1,0],[1,1,0],[0,0.25,0],[0,0.5,0],[0,0.75,0],[1,0.25,0],[1,0.5,0],[1,0.75,0]];outlineConnect=0;fontColor=#232F3E;fillColor=#7AA116;strokeColor=#ffffff;dashed=0;verticalLabelPosition=bottom;verticalAlign=top;align=center;html=1;fontSize=12;fontStyle=0;aspect=fixed;shape=mxgraph.aws4.resourceIcon;resIcon=mxgraph.aws4.s3;" parent="paGiszW4Czn-gF01w1Bo-2" vertex="1">
          <mxGeometry x="160.5" y="378" width="50" height="50" as="geometry" />
        </mxCell>
        <mxCell id="6j5I1fuNLuhJQFN6-kwg-34" style="edgeStyle=orthogonalEdgeStyle;rounded=0;orthogonalLoop=1;jettySize=auto;html=1;exitX=0.5;exitY=1;exitDx=0;exitDy=0;entryX=0.5;entryY=0;entryDx=0;entryDy=0;entryPerimeter=0;" parent="paGiszW4Czn-gF01w1Bo-2" source="6j5I1fuNLuhJQFN6-kwg-22" target="6j5I1fuNLuhJQFN6-kwg-33" edge="1">
          <mxGeometry relative="1" as="geometry" />
        </mxCell>
        <mxCell id="6j5I1fuNLuhJQFN6-kwg-35" style="edgeStyle=orthogonalEdgeStyle;rounded=0;orthogonalLoop=1;jettySize=auto;html=1;exitX=1;exitY=0.5;exitDx=0;exitDy=0;exitPerimeter=0;entryX=0;entryY=0.5;entryDx=0;entryDy=0;entryPerimeter=0;" parent="paGiszW4Czn-gF01w1Bo-2" source="6j5I1fuNLuhJQFN6-kwg-30" target="6j5I1fuNLuhJQFN6-kwg-33" edge="1">
          <mxGeometry relative="1" as="geometry" />
        </mxCell>
        <mxCell id="6j5I1fuNLuhJQFN6-kwg-36" value="" style="sketch=0;points=[[0,0,0],[0.25,0,0],[0.5,0,0],[0.75,0,0],[1,0,0],[0,1,0],[0.25,1,0],[0.5,1,0],[0.75,1,0],[1,1,0],[0,0.25,0],[0,0.5,0],[0,0.75,0],[1,0.25,0],[1,0.5,0],[1,0.75,0]];outlineConnect=0;fontColor=#232F3E;fillColor=#E7157B;strokeColor=#ffffff;dashed=0;verticalLabelPosition=bottom;verticalAlign=top;align=center;html=1;fontSize=12;fontStyle=0;aspect=fixed;shape=mxgraph.aws4.resourceIcon;resIcon=mxgraph.aws4.sqs;" parent="paGiszW4Czn-gF01w1Bo-2" vertex="1">
          <mxGeometry x="232" y="378" width="50" height="50" as="geometry" />
        </mxCell>
        <mxCell id="6j5I1fuNLuhJQFN6-kwg-38" style="edgeStyle=orthogonalEdgeStyle;rounded=0;orthogonalLoop=1;jettySize=auto;html=1;entryX=0;entryY=0.5;entryDx=0;entryDy=0;entryPerimeter=0;" parent="paGiszW4Czn-gF01w1Bo-2" source="6j5I1fuNLuhJQFN6-kwg-33" target="6j5I1fuNLuhJQFN6-kwg-36" edge="1">
          <mxGeometry relative="1" as="geometry" />
        </mxCell>
        <mxCell id="6j5I1fuNLuhJQFN6-kwg-39" value="" style="sketch=0;points=[[0,0,0],[0.25,0,0],[0.5,0,0],[0.75,0,0],[1,0,0],[0,1,0],[0.25,1,0],[0.5,1,0],[0.75,1,0],[1,1,0],[0,0.25,0],[0,0.5,0],[0,0.75,0],[1,0.25,0],[1,0.5,0],[1,0.75,0]];outlineConnect=0;fontColor=#232F3E;fillColor=#E7157B;strokeColor=#ffffff;dashed=0;verticalLabelPosition=bottom;verticalAlign=top;align=center;html=1;fontSize=12;fontStyle=0;aspect=fixed;shape=mxgraph.aws4.resourceIcon;resIcon=mxgraph.aws4.sns;" parent="paGiszW4Czn-gF01w1Bo-2" vertex="1">
          <mxGeometry x="300" y="378" width="50" height="50" as="geometry" />
        </mxCell>
        <mxCell id="6j5I1fuNLuhJQFN6-kwg-40" style="edgeStyle=orthogonalEdgeStyle;rounded=0;orthogonalLoop=1;jettySize=auto;html=1;entryX=0;entryY=0.5;entryDx=0;entryDy=0;entryPerimeter=0;" parent="paGiszW4Czn-gF01w1Bo-2" source="6j5I1fuNLuhJQFN6-kwg-36" target="6j5I1fuNLuhJQFN6-kwg-39" edge="1">
          <mxGeometry relative="1" as="geometry" />
        </mxCell>
        <mxCell id="6j5I1fuNLuhJQFN6-kwg-44" style="edgeStyle=orthogonalEdgeStyle;rounded=0;orthogonalLoop=1;jettySize=auto;html=1;" parent="paGiszW4Czn-gF01w1Bo-2" source="6j5I1fuNLuhJQFN6-kwg-41" target="6j5I1fuNLuhJQFN6-kwg-26" edge="1">
          <mxGeometry relative="1" as="geometry" />
        </mxCell>
        <mxCell id="6j5I1fuNLuhJQFN6-kwg-41" value="" style="sketch=0;points=[[0,0,0],[0.25,0,0],[0.5,0,0],[0.75,0,0],[1,0,0],[0,1,0],[0.25,1,0],[0.5,1,0],[0.75,1,0],[1,1,0],[0,0.25,0],[0,0.5,0],[0,0.75,0],[1,0.25,0],[1,0.5,0],[1,0.75,0]];outlineConnect=0;fontColor=#232F3E;fillColor=#ED7100;strokeColor=#ffffff;dashed=0;verticalLabelPosition=bottom;verticalAlign=top;align=center;html=1;fontSize=12;fontStyle=0;aspect=fixed;shape=mxgraph.aws4.resourceIcon;resIcon=mxgraph.aws4.lambda;" parent="paGiszW4Czn-gF01w1Bo-2" vertex="1">
          <mxGeometry x="160.5" y="470" width="50" height="50" as="geometry" />
        </mxCell>
        <mxCell id="6j5I1fuNLuhJQFN6-kwg-42" style="edgeStyle=orthogonalEdgeStyle;rounded=0;orthogonalLoop=1;jettySize=auto;html=1;entryX=0.5;entryY=0;entryDx=0;entryDy=0;entryPerimeter=0;" parent="paGiszW4Czn-gF01w1Bo-2" source="6j5I1fuNLuhJQFN6-kwg-33" target="6j5I1fuNLuhJQFN6-kwg-41" edge="1">
          <mxGeometry relative="1" as="geometry" />
        </mxCell>
        <mxCell id="6j5I1fuNLuhJQFN6-kwg-43" style="edgeStyle=orthogonalEdgeStyle;rounded=0;orthogonalLoop=1;jettySize=auto;html=1;entryX=0.5;entryY=1;entryDx=0;entryDy=0;entryPerimeter=0;" parent="paGiszW4Czn-gF01w1Bo-2" edge="1">
          <mxGeometry relative="1" as="geometry">
            <mxPoint x="187.25" y="428" as="sourcePoint" />
            <mxPoint x="326.75" y="428" as="targetPoint" />
            <Array as="points">
              <mxPoint x="187.75" y="450" />
              <mxPoint x="326.75" y="450" />
            </Array>
          </mxGeometry>
        </mxCell>
        <mxCell id="6j5I1fuNLuhJQFN6-kwg-46" style="edgeStyle=orthogonalEdgeStyle;rounded=0;orthogonalLoop=1;jettySize=auto;html=1;entryX=0;entryY=0.5;entryDx=0;entryDy=0;entryPerimeter=0;" parent="paGiszW4Czn-gF01w1Bo-2" source="6j5I1fuNLuhJQFN6-kwg-22" target="6j5I1fuNLuhJQFN6-kwg-76" edge="1">
          <mxGeometry relative="1" as="geometry">
            <mxPoint x="408" y="110" as="targetPoint" />
            <Array as="points">
              <mxPoint x="361" y="160" />
              <mxPoint x="361" y="116" />
            </Array>
          </mxGeometry>
        </mxCell>
        <mxCell id="6j5I1fuNLuhJQFN6-kwg-62" value="S3 uploading bucket" style="text;strokeColor=none;align=center;fillColor=none;html=1;verticalAlign=middle;whiteSpace=wrap;rounded=0;fontSize=9;" parent="paGiszW4Czn-gF01w1Bo-2" vertex="1">
          <mxGeometry x="-29" y="420" width="150" height="30" as="geometry" />
        </mxCell>
        <mxCell id="6j5I1fuNLuhJQFN6-kwg-64" value="Lambda" style="text;strokeColor=none;align=center;fillColor=none;html=1;verticalAlign=middle;whiteSpace=wrap;rounded=0;fontSize=10;" parent="paGiszW4Czn-gF01w1Bo-2" vertex="1">
          <mxGeometry x="88" y="420" width="60" height="30" as="geometry" />
        </mxCell>
        <mxCell id="6j5I1fuNLuhJQFN6-kwg-65" value="Lambda" style="text;strokeColor=none;align=center;fillColor=none;html=1;verticalAlign=middle;whiteSpace=wrap;rounded=0;fontSize=10;" parent="paGiszW4Czn-gF01w1Bo-2" vertex="1">
          <mxGeometry x="155.5" y="515" width="60" height="30" as="geometry" />
        </mxCell>
        <mxCell id="6j5I1fuNLuhJQFN6-kwg-66" value="S3 processing bucket" style="text;strokeColor=none;align=center;fillColor=none;html=1;verticalAlign=middle;whiteSpace=wrap;rounded=0;fontSize=9;" parent="paGiszW4Czn-gF01w1Bo-2" vertex="1">
          <mxGeometry x="104.75" y="420" width="170" height="30" as="geometry" />
        </mxCell>
        <mxCell id="6j5I1fuNLuhJQFN6-kwg-68" value="SQS&lt;br style=&quot;font-size: 10px;&quot;&gt;" style="text;strokeColor=none;align=center;fillColor=none;html=1;verticalAlign=middle;whiteSpace=wrap;rounded=0;fontSize=10;" parent="paGiszW4Czn-gF01w1Bo-2" vertex="1">
          <mxGeometry x="227" y="421" width="60" height="30" as="geometry" />
        </mxCell>
        <mxCell id="6j5I1fuNLuhJQFN6-kwg-70" value="CloudWatch&lt;br style=&quot;font-size: 10px;&quot;&gt;" style="text;strokeColor=none;align=center;fillColor=none;html=1;verticalAlign=middle;whiteSpace=wrap;rounded=0;fontSize=10;" parent="paGiszW4Czn-gF01w1Bo-2" vertex="1">
          <mxGeometry x="404" y="153" width="60" height="30" as="geometry" />
        </mxCell>
        <mxCell id="6j5I1fuNLuhJQFN6-kwg-71" value="EBS&lt;br&gt;" style="text;strokeColor=none;align=center;fillColor=none;html=1;verticalAlign=middle;whiteSpace=wrap;rounded=0;fontSize=10;" parent="paGiszW4Czn-gF01w1Bo-2" vertex="1">
          <mxGeometry x="404" y="69" width="60" height="30" as="geometry" />
        </mxCell>
        <mxCell id="6j5I1fuNLuhJQFN6-kwg-76" value="" style="sketch=0;points=[[0,0,0],[0.25,0,0],[0.5,0,0],[0.75,0,0],[1,0,0],[0,1,0],[0.25,1,0],[0.5,1,0],[0.75,1,0],[1,1,0],[0,0.25,0],[0,0.5,0],[0,0.75,0],[1,0.25,0],[1,0.5,0],[1,0.75,0]];outlineConnect=0;fontColor=#232F3E;fillColor=#7AA116;strokeColor=#ffffff;dashed=0;verticalLabelPosition=bottom;verticalAlign=top;align=center;html=1;fontSize=12;fontStyle=0;aspect=fixed;shape=mxgraph.aws4.resourceIcon;resIcon=mxgraph.aws4.elastic_block_store;" parent="paGiszW4Czn-gF01w1Bo-2" vertex="1">
          <mxGeometry x="410" y="91" width="50" height="50" as="geometry" />
        </mxCell>
        <mxCell id="6j5I1fuNLuhJQFN6-kwg-1" value="" style="sketch=0;outlineConnect=0;fontColor=#232F3E;gradientColor=none;fillColor=#232F3D;strokeColor=none;dashed=0;verticalLabelPosition=bottom;verticalAlign=top;align=center;html=1;fontSize=12;fontStyle=0;aspect=fixed;pointerEvents=1;shape=mxgraph.aws4.authenticated_user;" parent="paGiszW4Czn-gF01w1Bo-1" vertex="1">
          <mxGeometry x="10" y="408" width="40" height="40" as="geometry" />
        </mxCell>
        <mxCell id="6j5I1fuNLuhJQFN6-kwg-29" style="edgeStyle=orthogonalEdgeStyle;rounded=0;orthogonalLoop=1;jettySize=auto;html=1;entryX=0;entryY=0.5;entryDx=0;entryDy=0;entryPerimeter=0;" parent="paGiszW4Czn-gF01w1Bo-1" source="6j5I1fuNLuhJQFN6-kwg-1" target="6j5I1fuNLuhJQFN6-kwg-28" edge="1">
          <mxGeometry relative="1" as="geometry" />
        </mxCell>
        <mxCell id="6j5I1fuNLuhJQFN6-kwg-63" value="user" style="text;strokeColor=none;align=center;fillColor=none;html=1;verticalAlign=middle;whiteSpace=wrap;rounded=0;" parent="paGiszW4Czn-gF01w1Bo-1" vertex="1">
          <mxGeometry x="10" y="448" width="40" height="20" as="geometry" />
        </mxCell>
      </root>
    </mxGraphModel>
  </diagram>
</mxfile>
